<?xml version="1.0" standalone="no"?><svg xmlns="http://www.w3.org/2000/svg" viewBox="0 0 1440 320"><path fill="#0099ff" fill-opacity="0.7" d="M0,64L17.1,58.7C34.3,53,69,43,103,80C137.1,117,171,203,206,234.7C240,267,274,245,309,245.3C342.9,245,377,267,411,245.3C445.7,224,480,160,514,138.7C548.6,117,583,139,617,133.3C651.4,128,686,96,720,122.7C754.3,149,789,235,823,245.3C857.1,256,891,192,926,160C960,128,994,128,1029,106.7C1062.9,85,1097,43,1131,53.3C1165.7,64,1200,128,1234,128C1268.6,128,1303,64,1337,53.3C1371.4,43,1406,85,1423,106.7L1440,128L1440,320L1422.9,320C1405.7,320,1371,320,1337,320C1302.9,320,1269,320,1234,320C1200,320,1166,320,1131,320C1097.1,320,1063,320,1029,320C994.3,320,960,320,926,320C891.4,320,857,320,823,320C788.6,320,754,320,720,320C685.7,320,651,320,617,320C582.9,320,549,320,514,320C480,320,446,320,411,320C377.1,320,343,320,309,320C274.3,320,240,320,206,320C171.4,320,137,320,103,320C68.6,320,34,320,17,320L0,320Z"></path></svg>