<?xml version="1.0" standalone="no"?><svg xmlns="http://www.w3.org/2000/svg" viewBox="0 0 1440 320"><path fill="#a2d9ff" fill-opacity="0.7" d="M0,320L10.4,272C20.9,224,42,128,63,117.3C83.5,107,104,181,125,192C146.1,203,167,149,188,106.7C208.7,64,230,32,250,16C271.3,0,292,0,313,42.7C333.9,85,355,171,376,170.7C396.5,171,417,85,438,96C459.1,107,480,213,501,229.3C521.7,245,543,171,563,122.7C584.3,75,605,53,626,48C647,43,668,53,689,85.3C709.6,117,730,171,751,202.7C772.2,235,793,245,814,224C834.8,203,856,149,877,154.7C897.4,160,918,224,939,250.7C960,277,981,267,1002,224C1022.6,181,1043,107,1064,96C1085.2,85,1106,139,1127,154.7C1147.8,171,1169,149,1190,160C1210.4,171,1231,213,1252,208C1273,203,1294,149,1315,117.3C1335.7,85,1357,75,1377,90.7C1398.3,107,1419,149,1430,170.7L1440,192L1440,320L1429.6,320C1419.1,320,1398,320,1377,320C1356.5,320,1336,320,1315,320C1293.9,320,1273,320,1252,320C1231.3,320,1210,320,1190,320C1168.7,320,1148,320,1127,320C1106.1,320,1085,320,1064,320C1043.5,320,1023,320,1002,320C980.9,320,960,320,939,320C918.3,320,897,320,877,320C855.7,320,835,320,814,320C793,320,772,320,751,320C730.4,320,710,320,689,320C667.8,320,647,320,626,320C605.2,320,584,320,563,320C542.6,320,522,320,501,320C480,320,459,320,438,320C417.4,320,397,320,376,320C354.8,320,334,320,313,320C292.2,320,271,320,250,320C229.6,320,209,320,188,320C167,320,146,320,125,320C104.3,320,83,320,63,320C41.7,320,21,320,10,320L0,320Z"></path></svg>